# Blender v2.78 (sub 0) OBJ File: 'ship.blend'
# www.blender.org
o Rotator_Icosphere.005
v -0.000000 -0.720000 0.000000
v 0.612468 -0.321998 0.198999
v 0.000003 -0.321998 0.643985
v -0.612468 -0.321995 0.199003
v -0.378523 -0.321998 -0.520997
v 0.378528 -0.321998 -0.520993
v 0.378522 0.321998 0.520997
v -0.378528 0.321998 0.520993
v -0.612468 0.321998 -0.198999
v -0.000003 0.321998 -0.643985
v 0.612468 0.321995 -0.199003
v -0.000000 0.720000 0.000000
v 0.000002 -0.612471 0.378522
v 0.359997 -0.612471 0.116968
v 0.360001 -0.378531 0.495493
v 0.582490 -0.378530 -0.189263
v 0.222492 -0.612471 -0.306230
v -0.359999 -0.612469 0.116971
v -0.359999 -0.378530 0.495495
v -0.222488 -0.612471 -0.306232
v -0.582490 -0.378530 -0.189261
v 0.000003 -0.378531 -0.612466
v 0.720000 0.000000 -0.000003
v 0.582494 0.000000 -0.423203
v 0.222492 0.000000 0.684761
v 0.582492 0.000000 0.423205
v -0.582494 0.000000 0.423203
v -0.222492 0.000000 0.684761
v -0.582492 0.000000 -0.423205
v -0.720000 0.000000 0.000003
v 0.222492 0.000000 -0.684761
v -0.222492 0.000000 -0.684761
v 0.582490 0.378530 0.189261
v -0.000003 0.378531 0.612466
v -0.582490 0.378530 0.189263
v -0.360001 0.378531 -0.495493
v 0.359999 0.378530 -0.495495
v 0.222488 0.612471 0.306232
v 0.359999 0.612469 -0.116971
v -0.222492 0.612471 0.306230
v -0.359997 0.612471 -0.116968
v -0.000002 0.612471 -0.378522
vn 0.1947 -0.9435 0.2680
vn 0.7488 -0.6617 0.0385
vn -0.1947 -0.9435 0.2680
vn -0.3151 -0.9435 -0.1024
vn 0.0000 -0.9435 -0.3313
vn 0.9435 -0.3304 -0.0247
vn 0.3151 -0.3304 0.8897
vn -0.7488 -0.3304 0.5746
vn -0.7779 -0.3304 -0.5346
vn 0.2680 -0.3304 -0.9050
vn 0.9435 -0.1256 0.3066
vn 0.0000 -0.1256 0.9921
vn -0.9435 -0.1256 0.3066
vn -0.5831 -0.1256 -0.8026
vn 0.5831 -0.1256 -0.8026
vn 0.5831 0.6617 0.4713
vn -0.2680 0.6617 0.7002
vn -0.7488 0.6617 -0.0385
vn 0.6284 0.6617 -0.4089
vn 0.1947 0.9435 -0.2680
vn -0.1947 0.6617 -0.7240
vn -0.1947 0.9435 -0.2680
vn -0.6284 0.6617 -0.4089
vn -0.3151 0.9435 0.1024
vn -0.5773 0.7947 0.1876
vn -0.5831 0.6617 0.4713
vn -0.0000 0.9435 0.3313
vn -0.0000 0.7947 0.6071
vn 0.2680 0.6617 0.7002
vn 0.3151 0.9435 0.1024
vn 0.5773 0.7947 0.1876
vn 0.7488 0.6617 -0.0385
vn 0.7488 0.3304 -0.5746
vn 0.5774 0.1876 -0.7947
vn 0.3151 0.3304 -0.8897
vn -0.3151 0.3304 -0.8897
vn -0.5773 0.1876 -0.7947
vn -0.7488 0.3304 -0.5746
vn -0.9435 0.3304 0.0247
vn -0.9342 0.1876 0.3035
vn -0.7779 0.3304 0.5346
vn -0.2680 0.3304 0.9050
vn 0.0000 0.1876 0.9822
vn 0.2680 0.3304 0.9050
vn 0.7779 0.3304 0.5346
vn 0.9342 0.1876 0.3035
vn 0.9435 0.3304 0.0247
vn -0.0000 0.1256 -0.9921
vn -0.0000 -0.1876 -0.9822
vn -0.2680 -0.3304 -0.9050
vn -0.9435 0.1256 -0.3066
vn -0.9342 -0.1876 -0.3035
vn -0.9435 -0.3304 -0.0247
vn -0.5831 0.1256 0.8026
vn -0.5774 -0.1876 0.7947
vn -0.3151 -0.3304 0.8897
vn 0.5831 0.1256 0.8026
vn 0.5773 -0.1876 0.7947
vn 0.7488 -0.3304 0.5746
vn 0.9435 0.1256 -0.3066
vn 0.9342 -0.1876 -0.3035
vn 0.7779 -0.3304 -0.5346
vn 0.2680 -0.6617 -0.7002
vn 0.0000 -0.7947 -0.6071
vn -0.2680 -0.6617 -0.7002
vn -0.5831 -0.6617 -0.4713
vn -0.5773 -0.7947 -0.1876
vn -0.7488 -0.6617 0.0385
vn -0.6284 -0.6617 0.4089
vn -0.3568 -0.7947 0.4911
vn -0.1947 -0.6617 0.7240
vn 0.5831 -0.6617 -0.4713
vn 0.5773 -0.7947 -0.1876
vn 0.3151 -0.9435 -0.1024
vn 0.1947 -0.6617 0.7240
vn 0.3568 -0.7947 0.4911
vn 0.6284 -0.6617 0.4089
vn 0.3568 0.7947 -0.4911
vn -0.3568 0.7947 -0.4911
vn 0.1947 0.6617 -0.7240
s off
f 1//1 14//1 13//1
f 2//2 14//2 16//2
f 1//3 13//3 18//3
f 1//4 18//4 20//4
f 1//5 20//5 17//5
f 2//6 16//6 23//6
f 3//7 15//7 25//7
f 4//8 19//8 27//8
f 5//9 21//9 29//9
f 6//10 22//10 31//10
f 2//11 23//11 26//11
f 3//12 25//12 28//12
f 4//13 27//13 30//13
f 5//14 29//14 32//14
f 6//15 31//15 24//15
f 7//16 33//16 38//16
f 8//17 34//17 40//17
f 9//18 35//18 41//18
f 11//19 37//19 39//19
f 39//20 42//20 12//20
f 36//21 42//21 10//21
f 42//22 41//22 12//22
f 36//23 9//23 41//23
f 41//24 40//24 12//24
f 41//25 35//25 40//25
f 35//26 8//26 40//26
f 40//27 38//27 12//27
f 40//28 34//28 38//28
f 34//29 7//29 38//29
f 38//30 39//30 12//30
f 38//31 33//31 39//31
f 33//32 11//32 39//32
f 24//33 37//33 11//33
f 24//34 31//34 37//34
f 31//35 10//35 37//35
f 32//36 36//36 10//36
f 32//37 29//37 36//37
f 29//38 9//38 36//38
f 30//39 35//39 9//39
f 30//40 27//40 35//40
f 27//41 8//41 35//41
f 28//42 34//42 8//42
f 28//43 25//43 34//43
f 25//44 7//44 34//44
f 26//45 33//45 7//45
f 26//46 23//46 33//46
f 23//47 11//47 33//47
f 31//48 32//48 10//48
f 31//49 22//49 32//49
f 22//50 5//50 32//50
f 29//51 30//51 9//51
f 29//52 21//52 30//52
f 21//53 4//53 30//53
f 27//54 28//54 8//54
f 27//55 19//55 28//55
f 19//56 3//56 28//56
f 25//57 26//57 7//57
f 25//58 15//58 26//58
f 15//59 2//59 26//59
f 23//60 24//60 11//60
f 23//61 16//61 24//61
f 16//62 6//62 24//62
f 17//63 22//63 6//63
f 17//64 20//64 22//64
f 20//65 5//65 22//65
f 20//66 21//66 5//66
f 20//67 18//67 21//67
f 18//68 4//68 21//68
f 18//69 19//69 4//69
f 18//70 13//70 19//70
f 13//71 3//71 19//71
f 16//72 17//72 6//72
f 16//73 14//73 17//73
f 14//74 1//74 17//74
f 13//75 15//75 3//75
f 13//76 14//76 15//76
f 14//77 2//77 15//77
f 37//78 42//78 39//78
f 36//79 41//79 42//79
f 37//80 10//80 42//80
