# Blender v2.78 (sub 0) OBJ File: 'submarine.blend'
# www.blender.org
o HatchR_Cube.004
v -0.350000 0.066206 0.350000
v -0.350000 0.066206 -0.350000
v 0.000000 0.000000 0.350000
v 0.000000 0.000000 -0.350000
v -0.154911 0.046991 0.350005
v -0.154911 0.046991 -0.350001
v -0.350241 0.061218 0.350000
v -0.350241 0.061218 -0.350000
v -0.000727 -0.004891 0.350000
v -0.000727 -0.004891 -0.350000
v -0.155396 0.042040 0.350005
v -0.155396 0.042040 -0.350001
vn 0.1420 0.7139 -0.6857
vn 0.6850 0.4336 0.5854
vn 0.6850 0.4336 -0.5855
vn -0.5348 0.6194 0.5748
vn 0.1420 0.7139 0.6857
vn -0.1333 -0.6704 -0.7299
vn 0.4394 -0.6942 0.5700
vn -0.1333 -0.6704 0.7299
vn -0.6166 -0.5324 0.5800
vn -0.6166 -0.5324 -0.5800
vn 0.4394 -0.6942 -0.5700
vn -0.5348 0.6194 -0.5748
s 1
f 6//1 3//2 4//3
f 6//1 1//4 5//5
f 12//6 9//7 11//8
f 12//6 7//9 8//10
f 5//5 7//9 11//8
f 3//2 10//11 4//3
f 6//1 8//10 2//12
f 3//2 11//8 9//7
f 2//12 7//9 1//4
f 4//3 12//6 6//1
f 6//1 5//5 3//2
f 6//1 2//12 1//4
f 12//6 10//11 9//7
f 12//6 11//8 7//9
f 5//5 1//4 7//9
f 3//2 9//7 10//11
f 6//1 12//6 8//10
f 3//2 5//5 11//8
f 2//12 8//10 7//9
f 4//3 10//11 12//6
