# Blender v2.78 (sub 0) OBJ File: 'submarine.blend'
# www.blender.org
o Missile_Cylinder.015
v -0.098995 -0.390000 0.095459
v -0.079196 -0.190000 0.076368
v 0.095459 -0.390000 -0.098995
v 0.076368 -0.190000 -0.079196
v -0.095459 -0.390000 0.098995
v -0.076368 -0.190000 0.079196
v 0.098995 -0.390000 -0.095459
v 0.079196 -0.190000 -0.076368
v 0.095459 -0.390000 0.098995
v 0.076368 -0.190000 0.079196
v -0.098995 -0.390000 -0.095459
v -0.079196 -0.190000 -0.076368
v 0.098995 -0.390000 0.095459
v 0.079196 -0.190000 0.076368
v -0.095459 -0.390000 -0.098995
v -0.076368 -0.190000 -0.079196
v 0.020000 -0.479386 -0.034641
v 0.050000 0.110614 -0.086603
v -0.034641 -0.479386 0.020000
v -0.034641 -0.479386 -0.020000
v -0.086603 0.110614 -0.050000
v -0.020000 -0.479386 -0.034641
v -0.050000 0.110614 -0.086603
v -0.050000 -0.391886 -0.086603
v -0.086603 -0.391886 -0.050000
v -0.012941 0.348134 0.022414
v -0.025000 0.315099 0.043301
v 0.050000 -0.391886 -0.086603
v 0.030000 -0.579386 -0.051962
v -0.051962 -0.579386 0.030000
v -0.051962 -0.579386 -0.030000
v -0.030000 -0.579386 -0.051961
v 0.000000 -0.479386 -0.040000
v -0.086603 0.110614 0.050000
v -0.020000 -0.479386 0.034641
v 0.000000 -0.479386 0.040000
v 0.000000 0.110614 0.100000
v 0.020000 -0.479386 0.034641
v 0.050000 0.110614 0.086603
v 0.034641 -0.479386 0.020000
v 0.086603 0.110614 0.050000
v 0.034641 -0.479386 -0.020000
v 0.086603 0.110614 -0.050000
v 0.086603 -0.391886 -0.050000
v -0.022414 0.348134 0.012941
v 0.086603 -0.391886 0.050000
v 0.050000 -0.391886 0.086603
v 0.000000 -0.391886 0.100000
v -0.086603 -0.391886 0.050000
v 0.043301 0.315099 -0.025000
v 0.048296 0.162455 -0.083652
v 0.000000 -0.579386 -0.060000
v 0.000000 -0.579386 0.060000
v 0.030000 -0.579386 0.051962
v 0.051962 -0.579386 0.030000
v 0.051962 -0.579386 -0.030000
v 0.040000 -0.479386 0.000000
v 0.100000 0.110614 0.000000
v -0.040000 -0.479386 0.000000
v -0.050000 0.110614 0.086603
v -0.050000 -0.391886 0.086603
v 0.022414 0.348134 0.012941
v 0.043301 0.315099 0.025000
v 0.061237 0.268613 0.035355
v 0.075000 0.215690 0.043301
v 0.050000 0.315099 0.000000
v 0.070711 0.268613 0.000000
v 0.086603 0.215690 0.000000
v -0.100000 -0.391886 0.000000
v 0.061237 0.268613 -0.035355
v 0.075000 0.215690 -0.043301
v 0.012941 0.348134 -0.022414
v 0.025000 0.315099 -0.043301
v 0.035355 0.268613 -0.061237
v 0.043301 0.215690 -0.075000
v -0.025000 0.315099 -0.043301
v -0.043301 0.215690 -0.075000
v -0.048296 0.162455 -0.083652
v -0.022414 0.348134 -0.012941
v -0.043301 0.315099 -0.025000
v -0.061237 0.268613 -0.035355
v -0.083652 0.162455 -0.048296
v -0.050000 0.315099 0.000000
v -0.086603 0.215690 0.000000
v -0.075000 0.215690 0.043301
v -0.043301 0.215690 0.075000
v -0.030000 -0.579386 0.051961
v -0.100000 0.110614 0.000000
v 0.000000 0.110614 -0.100000
v 0.000000 0.348134 0.025882
v 0.000000 0.268613 0.070711
v 0.000000 0.215690 0.086603
v -0.035355 0.268613 0.061237
v -0.048296 0.162455 0.083652
v 0.000000 0.360614 0.000000
v -0.043301 0.315099 0.025000
v -0.061237 0.268613 0.035355
v -0.083652 0.162455 0.048296
v -0.025882 0.348134 0.000000
v -0.070711 0.268613 0.000000
v -0.096593 0.162455 0.000000
v 0.100000 -0.391886 0.000000
v -0.075000 0.215690 -0.043301
v -0.012941 0.348134 -0.022414
v -0.035355 0.268613 -0.061237
v 0.000000 0.348134 -0.025882
v 0.000000 0.315099 -0.050000
v 0.000000 0.268613 -0.070711
v 0.000000 0.215690 -0.086603
v 0.000000 0.162455 -0.096593
v 0.000000 -0.391886 -0.100000
v 0.022414 0.348134 -0.012941
v 0.083652 0.162455 -0.048296
v 0.025882 0.348134 0.000000
v 0.096593 0.162455 0.000000
v 0.083652 0.162455 0.048296
v 0.012941 0.348134 0.022414
v 0.025000 0.315099 0.043301
v 0.035355 0.268613 0.061237
v 0.043301 0.215690 0.075000
v 0.048296 0.162455 0.083652
v 0.000000 0.315099 0.050000
v 0.000000 0.162455 0.096593
v -0.060000 -0.579386 0.000000
v 0.060000 -0.579386 0.000000
vn -0.7071 0.0025 -0.7071
vn 0.7005 0.1362 -0.7005
vn 0.7071 0.0025 0.7071
vn -0.7005 0.1362 0.7005
vn 0.0000 -1.0000 -0.0000
vn 0.0000 1.0000 0.0000
vn -0.7071 0.0025 0.7071
vn -0.7005 0.1362 -0.7005
vn 0.7071 0.0025 -0.7071
vn 0.7005 0.1362 0.7005
vn 0.2588 0.0000 -0.9659
vn 0.7071 0.0000 -0.7071
vn 0.9659 0.0000 -0.2588
vn 0.9659 0.0000 0.2588
vn -0.2588 0.0000 0.9659
vn -0.7071 0.0000 0.7071
vn -0.9659 0.0000 0.2588
vn -0.9659 0.0000 -0.2588
vn -0.7071 0.0000 -0.7071
vn -0.2588 0.0000 -0.9659
vn 0.9484 0.1897 0.2541
vn 0.2547 0.1784 -0.9504
vn 0.2583 0.0634 -0.9640
vn 0.5779 0.5763 -0.5779
vn 0.7057 0.0634 -0.7057
vn 0.6495 0.3953 -0.6495
vn 0.3158 0.8947 -0.3158
vn 0.6958 0.1784 -0.6958
vn 0.9504 0.1784 -0.2547
vn 0.7894 0.5763 -0.2115
vn 0.9640 0.0634 -0.2583
vn 0.8873 0.3953 -0.2377
vn 0.4314 0.8947 0.1156
vn 0.9504 0.1784 0.2547
vn 0.7894 0.5763 0.2115
vn 0.9640 0.0634 0.2583
vn 0.6958 0.1784 0.6958
vn 0.5779 0.5763 0.5779
vn 0.7057 0.0634 0.7057
vn 0.6495 0.3953 0.6495
vn 0.6791 0.2786 0.6791
vn 0.3158 0.8947 0.3158
vn 0.2583 0.0634 0.9640
vn -0.2583 0.0634 0.9640
vn -0.2377 0.3953 0.8873
vn -0.2486 0.2786 0.9277
vn -0.1156 0.8947 0.4314
vn -0.2547 0.1784 0.9504
vn -0.2115 0.5763 0.7894
vn -0.6958 0.1784 0.6958
vn -0.5779 0.5763 0.5779
vn -0.7057 0.0634 0.7057
vn -0.6495 0.3953 0.6495
vn -0.6791 0.2786 0.6791
vn -0.3158 0.8947 0.3158
vn -0.9277 0.2786 0.2486
vn -0.9504 0.1784 0.2547
vn -0.7894 0.5763 0.2115
vn -0.9640 0.0634 0.2583
vn -0.8873 0.3953 0.2377
vn -0.9640 0.0634 -0.2583
vn -0.8873 0.3953 -0.2377
vn -0.9277 0.2786 -0.2486
vn -0.4314 0.8947 -0.1156
vn -0.9504 0.1784 -0.2547
vn -0.7894 0.5763 -0.2115
vn -0.6958 0.1784 -0.6958
vn -0.5779 0.5763 -0.5779
vn -0.7057 0.0634 -0.7057
vn -0.6495 0.3953 -0.6495
vn -0.6791 0.2786 -0.6791
vn -0.3158 0.8947 -0.3158
vn -0.2486 0.2786 -0.9277
vn -0.2115 0.5763 -0.7894
vn -0.2583 0.0634 -0.9640
vn -0.2377 0.3953 -0.8873
vn -0.2158 -0.5522 -0.8053
vn -0.5895 -0.5522 -0.5895
vn -0.8053 -0.5522 -0.2158
vn -0.8053 -0.5522 0.2158
vn -0.5895 -0.5522 0.5895
vn -0.2158 -0.5522 0.8053
vn 0.8053 -0.5522 0.2158
vn 0.8053 -0.5522 -0.2158
vn 0.5895 -0.5522 -0.5895
vn 0.2158 -0.5522 -0.8053
vn -0.2541 0.1897 -0.9484
vn 0.9484 0.1897 -0.2541
vn -0.6943 0.1897 -0.6943
vn -0.9484 0.1897 -0.2541
vn -0.9484 0.1897 0.2541
vn -0.6943 0.1897 0.6943
vn 0.2541 0.1897 -0.9484
vn -0.2541 0.1897 0.9484
vn 0.6943 0.1897 -0.6943
vn 0.2588 0.0000 0.9659
vn 0.7071 0.0000 0.7071
vn -0.4314 0.8947 0.1156
vn 0.5895 -0.5522 0.5895
vn 0.2158 -0.5522 0.8053
vn 0.6943 0.1897 0.6943
vn 0.2541 0.1897 0.9484
vn 0.9277 0.2786 0.2486
vn 0.8873 0.3953 0.2377
vn 0.9277 0.2786 -0.2486
vn 0.6791 0.2786 -0.6791
vn 0.2486 0.2786 -0.9277
vn 0.1156 0.8947 -0.4314
vn 0.2115 0.5763 -0.7894
vn 0.2377 0.3953 -0.8873
vn -0.2547 0.1784 -0.9504
vn -0.1156 0.8947 -0.4314
vn 0.4314 0.8947 -0.1156
vn 0.2486 0.2786 0.9277
vn 0.1156 0.8947 0.4314
vn 0.2547 0.1784 0.9504
vn 0.2115 0.5763 0.7894
vn 0.2377 0.3953 0.8873
s off
f 2//1 3//1 1//1
f 4//2 7//2 3//2
f 8//3 5//3 7//3
f 5//4 2//4 1//4
f 3//5 5//5 1//5
f 4//6 6//6 8//6
f 10//7 11//7 9//7
f 12//8 15//8 11//8
f 16//9 13//9 15//9
f 13//10 10//10 9//10
f 11//5 13//5 9//5
f 12//6 14//6 16//6
f 89//11 28//11 111//11
f 18//12 44//12 28//12
f 43//13 102//13 44//13
f 58//14 46//14 102//14
f 37//15 61//15 48//15
f 60//16 49//16 61//16
f 34//17 69//17 49//17
f 88//18 25//18 69//18
f 21//6 37//6 43//6
f 21//19 24//19 25//19
f 23//20 111//20 24//20
f 40//21 125//21 57//21
f 109//22 51//22 110//22
f 89//23 51//23 18//23
f 72//24 50//24 73//24
f 18//25 113//25 43//25
f 74//26 50//26 70//26
f 72//27 95//27 112//27
f 51//28 71//28 113//28
f 113//29 68//29 115//29
f 112//30 66//30 50//30
f 43//31 115//31 58//31
f 50//32 67//32 70//32
f 114//33 95//33 62//33
f 115//34 65//34 116//34
f 114//35 63//35 66//35
f 58//36 116//36 41//36
f 116//37 120//37 121//37
f 62//38 118//38 63//38
f 41//39 121//39 39//39
f 63//40 119//40 64//40
f 65//41 119//41 120//41
f 62//42 95//42 117//42
f 39//43 123//43 37//43
f 37//44 94//44 60//44
f 122//45 93//45 91//45
f 91//46 86//46 92//46
f 90//47 95//47 26//47
f 123//48 86//48 94//48
f 90//49 27//49 122//49
f 94//50 85//50 98//50
f 27//51 45//51 96//51
f 60//52 98//52 34//52
f 27//53 97//53 93//53
f 93//54 85//54 86//54
f 26//55 95//55 45//55
f 97//56 84//56 85//56
f 85//57 101//57 98//57
f 45//58 83//58 96//58
f 34//59 101//59 88//59
f 97//60 83//60 100//60
f 101//61 21//61 88//61
f 83//62 81//62 100//62
f 100//63 103//63 84//63
f 99//64 95//64 79//64
f 84//65 82//65 101//65
f 99//66 80//66 83//66
f 103//67 78//67 82//67
f 80//68 104//68 76//68
f 82//69 23//69 21//69
f 81//70 76//70 105//70
f 103//71 105//71 77//71
f 79//72 95//72 104//72
f 105//73 109//73 77//73
f 104//74 107//74 76//74
f 78//75 89//75 23//75
f 105//76 107//76 108//76
f 22//77 111//77 33//77
f 25//78 22//78 20//78
f 59//79 25//79 20//79
f 49//80 59//80 19//80
f 61//81 19//81 35//81
f 48//82 35//82 36//82
f 57//83 46//83 40//83
f 44//84 57//84 42//84
f 28//85 42//85 17//85
f 33//86 28//86 17//86
f 125//5 87//5 29//5
f 33//87 32//87 22//87
f 57//88 56//88 42//88
f 20//89 32//89 31//89
f 20//90 124//90 59//90
f 59//91 30//91 19//91
f 19//92 87//92 35//92
f 17//93 52//93 33//93
f 35//94 53//94 36//94
f 42//95 29//95 17//95
f 47//96 37//96 48//96
f 46//97 39//97 47//97
f 99//98 45//98 95//98
f 40//99 47//99 38//99
f 38//100 48//100 36//100
f 54//101 40//101 38//101
f 36//102 54//102 38//102
f 68//103 64//103 65//103
f 64//104 66//104 63//104
f 71//105 67//105 68//105
f 75//106 70//106 71//106
f 109//107 74//107 75//107
f 72//108 106//108 95//108
f 107//109 72//109 73//109
f 108//110 73//110 74//110
f 110//111 77//111 109//111
f 104//112 95//112 106//112
f 112//113 95//113 114//113
f 120//114 91//114 92//114
f 117//115 95//115 90//115
f 120//116 123//116 121//116
f 117//117 122//117 118//117
f 118//118 91//118 119//118
f 2//1 4//1 3//1
f 4//2 8//2 7//2
f 8//3 6//3 5//3
f 5//4 6//4 2//4
f 3//5 7//5 5//5
f 4//6 2//6 6//6
f 10//7 12//7 11//7
f 12//8 16//8 15//8
f 16//9 14//9 13//9
f 13//10 14//10 10//10
f 11//5 15//5 13//5
f 12//6 10//6 14//6
f 89//11 18//11 28//11
f 18//12 43//12 44//12
f 43//13 58//13 102//13
f 58//14 41//14 46//14
f 37//15 60//15 61//15
f 60//16 34//16 49//16
f 34//17 88//17 69//17
f 88//18 21//18 25//18
f 43//6 18//6 89//6
f 89//6 23//6 43//6
f 21//6 88//6 34//6
f 34//6 60//6 21//6
f 37//6 39//6 43//6
f 41//6 58//6 43//6
f 43//6 23//6 21//6
f 21//6 60//6 37//6
f 39//6 41//6 43//6
f 21//19 23//19 24//19
f 23//20 89//20 111//20
f 40//21 55//21 125//21
f 109//22 75//22 51//22
f 89//23 110//23 51//23
f 72//24 112//24 50//24
f 18//25 51//25 113//25
f 74//26 73//26 50//26
f 51//28 75//28 71//28
f 113//29 71//29 68//29
f 112//30 114//30 66//30
f 43//31 113//31 115//31
f 50//32 66//32 67//32
f 115//34 68//34 65//34
f 114//35 62//35 63//35
f 58//36 115//36 116//36
f 116//37 65//37 120//37
f 62//38 117//38 118//38
f 41//39 116//39 121//39
f 63//40 118//40 119//40
f 65//41 64//41 119//41
f 39//43 121//43 123//43
f 37//44 123//44 94//44
f 122//45 27//45 93//45
f 91//46 93//46 86//46
f 123//48 92//48 86//48
f 90//49 26//49 27//49
f 94//50 86//50 85//50
f 27//51 26//51 45//51
f 60//52 94//52 98//52
f 27//53 96//53 97//53
f 93//54 97//54 85//54
f 97//56 100//56 84//56
f 85//57 84//57 101//57
f 45//58 99//58 83//58
f 34//59 98//59 101//59
f 97//60 96//60 83//60
f 101//61 82//61 21//61
f 83//62 80//62 81//62
f 100//63 81//63 103//63
f 84//65 103//65 82//65
f 99//66 79//66 80//66
f 103//67 77//67 78//67
f 80//68 79//68 104//68
f 82//69 78//69 23//69
f 81//70 80//70 76//70
f 103//71 81//71 105//71
f 105//73 108//73 109//73
f 104//74 106//74 107//74
f 78//75 110//75 89//75
f 105//76 76//76 107//76
f 22//77 24//77 111//77
f 25//78 24//78 22//78
f 59//79 69//79 25//79
f 49//80 69//80 59//80
f 61//81 49//81 19//81
f 48//82 61//82 35//82
f 57//83 102//83 46//83
f 44//84 102//84 57//84
f 28//85 44//85 42//85
f 33//86 111//86 28//86
f 32//5 52//5 29//5
f 29//5 56//5 125//5
f 125//5 55//5 87//5
f 54//5 53//5 87//5
f 87//5 30//5 124//5
f 124//5 31//5 32//5
f 32//5 29//5 87//5
f 55//5 54//5 87//5
f 87//5 124//5 32//5
f 33//87 52//87 32//87
f 57//88 125//88 56//88
f 20//89 22//89 32//89
f 20//90 31//90 124//90
f 59//91 124//91 30//91
f 19//92 30//92 87//92
f 17//93 29//93 52//93
f 35//94 87//94 53//94
f 42//95 56//95 29//95
f 47//96 39//96 37//96
f 46//97 41//97 39//97
f 40//99 46//99 47//99
f 38//100 47//100 48//100
f 54//101 55//101 40//101
f 36//102 53//102 54//102
f 68//103 67//103 64//103
f 64//104 67//104 66//104
f 71//105 70//105 67//105
f 75//106 74//106 70//106
f 109//107 108//107 74//107
f 107//109 106//109 72//109
f 108//110 107//110 73//110
f 110//111 78//111 77//111
f 120//114 119//114 91//114
f 120//116 92//116 123//116
f 117//117 90//117 122//117
f 118//118 122//118 91//118
